<?xml version="1.0" standalone="no"?>
<!DOCTYPE svg PUBLIC "-//W3C//DTD SVG 20010904//EN"
 "http://www.w3.org/TR/2001/REC-SVG-20010904/DTD/svg10.dtd">
<svg version="1.0" xmlns="http://www.w3.org/2000/svg"
 width="500.000000pt" height="500.000000pt" viewBox="0 0 500.000000 500.000000"
 preserveAspectRatio="xMidYMid meet">
<metadata>
Created by potrace 1.16, written by Peter Selinger 2001-2019
</metadata>
<g transform="translate(0.000000,500.000000) scale(0.100000,-0.100000)"
fill="#000000" stroke="none">
<path d="M1702 4308 c8 -13 97 -166 198 -340 l183 -317 656 -3 656 -3 70 -23
c112 -38 193 -88 281 -176 132 -133 196 -288 198 -481 1 -123 -13 -183 -71
-305 -38 -80 -59 -107 -132 -180 -66 -65 -104 -94 -161 -122 -142 -68 -158
-71 -447 -76 l-262 -4 -47 -81 c-26 -45 -111 -193 -190 -329 -80 -136 -147
-253 -150 -261 -4 -12 107 -212 442 -789 l79 -138 393 0 c371 0 392 1 383 18
-5 9 -122 212 -260 451 -138 239 -251 438 -251 441 0 4 56 12 125 19 365 35
686 207 928 496 376 449 409 1130 78 1613 -232 338 -544 537 -941 597 -77 12
-250 15 -934 15 l-838 0 14 -22z"/>
<path d="M2055 3599 c-53 -88 -939 -1622 -1433 -2479 -134 -234 -246 -428
-249 -432 -2 -5 173 -8 389 -8 l393 0 119 208 c66 114 241 416 389 672 446
769 798 1380 803 1394 4 9 -361 664 -381 684 -2 3 -16 -15 -30 -39z"/>
</g>
</svg>
